HIERARCHY
ROOT Hips
{
    OFFSET 0.000000 0.000000 0.000000
    CHANNELS 6 Xposition Yposition Zposition Zrotation Xrotation Yrotation
    JOINT Spine
    {
        OFFSET -0.000000 14.517291 0.000000
        CHANNELS 3 Zrotation Xrotation Yrotation
        JOINT Spine1
        {
            OFFSET -0.000000 37.558300 0.000000
            CHANNELS 3 Zrotation Xrotation Yrotation
            JOINT Neck
            {
                OFFSET -0.000000 37.404057 3.400369
                CHANNELS 3 Zrotation Xrotation Yrotation
                JOINT Head
                {
                    OFFSET -0.000000 24.785618 -3.540803
                    CHANNELS 3 Zrotation Xrotation Yrotation
                    End Site
                    {
                        OFFSET -0.000000 35.408028 0.000000
                    }
                }
            }
            JOINT LeftShoulder
            {
                OFFSET 6.992933 33.973492 -0.192664
                CHANNELS 3 Zrotation Xrotation Yrotation
                JOINT LeftArm
                {
                    OFFSET 21.527611 0.000000 0.000000
                    CHANNELS 3 Zrotation Xrotation Yrotation
                    JOINT LeftForeArm
                    {
                        OFFSET 56.353916 0.000000 0.000000
                        CHANNELS 3 Zrotation Xrotation Yrotation
                        JOINT LeftHand
                        {
                            OFFSET 47.774071 0.000000 0.000000
                            CHANNELS 3 Zrotation Xrotation Yrotation
                            End Site
                            {
                                OFFSET 26.556021 0.000000 0.000000
                            }
                        }
                    }
                }
            }
            JOINT RightShoulder
            {
                OFFSET -7.065357 33.973492 -0.192664
                CHANNELS 3 Zrotation Xrotation Yrotation
                JOINT RightArm
                {
                    OFFSET -21.527611 0.000000 0.000000
                    CHANNELS 3 Zrotation Xrotation Yrotation
                    JOINT RightForeArm
                    {
                        OFFSET -56.353916 0.000000 0.000000
                        CHANNELS 3 Zrotation Xrotation Yrotation
                        JOINT RightHand
                        {
                            OFFSET -47.774071 0.000000 0.000000
                            CHANNELS 3 Zrotation Xrotation Yrotation
                            End Site
                            {
                                OFFSET -26.556021 0.000000 0.000000
                            }
                        }
                    }
                }
            }
        }
    }
    JOINT LeftUpLeg
    {
        OFFSET 17.704014 0.000000 0.000000
        CHANNELS 3 Zrotation Xrotation Yrotation
        JOINT LeftLeg
        {
            OFFSET -0.000000 -81.181816 0.000000
            CHANNELS 3 Zrotation Xrotation Yrotation
            JOINT LeftFoot
            {
                OFFSET -0.000000 -62.821102 0.000000
                CHANNELS 3 Zrotation Xrotation Yrotation
                JOINT LeftToeBase
                {
                    OFFSET -0.000000 -11.507608 26.556021
                    CHANNELS 3 Zrotation Xrotation Yrotation
                    End Site
                    {
                        OFFSET -0.000000 0.000000 7.081605
                    }
                }
            }
        }
    }
    JOINT RightUpLeg
    {
        OFFSET -17.704014 0.000000 0.000000
        CHANNELS 3 Zrotation Xrotation Yrotation
        JOINT RightLeg
        {
            OFFSET -0.000000 -81.181816 0.000000
            CHANNELS 3 Zrotation Xrotation Yrotation
            JOINT RightFoot
            {
                OFFSET -0.000000 -62.821102 0.000000
                CHANNELS 3 Zrotation Xrotation Yrotation
                JOINT RightToeBase
                {
                    OFFSET -0.000000 -11.507608 26.556021
                    CHANNELS 3 Zrotation Xrotation Yrotation
                    End Site
                    {
                        OFFSET -0.000000 0.000000 7.081605
                    }
                }
            }
        }
    }
}
MOTION
Frames:    10
Frame Time:    0.008333
-29.439333    151.366943    -34.781364    -0.231634    3.687793    24.927448    -3.723677    4.297926    7.979338    -2.226863    -2.871725    2.558253    -1.391361    6.237562    -12.440535    13.648146    -12.462430    -9.450417    2.300545    4.506858    -7.584836    -34.901455    10.707275    -60.274632    -4.918799    -29.173813    -124.246078    -7.305809    -36.254631    -14.024830    -1.086261    8.984408    -2.578856    44.903934    10.979362    33.477280    -61.789829    -42.243870    -0.500908    7.113997    -41.411983    22.486704    -3.122470    -36.184830    -29.836859    -10.848691    22.833916    -24.759584    -11.338366    1.889762    31.341946    0.000000    0.000000    0.000000    4.296774    8.702446    -20.604658    2.109324    23.693718    -3.160332    -0.249215    -30.715960    -9.324327    0.000000    0.000000    0.000000    
-29.420889    151.363403    -34.788292    -0.242221    3.690428    24.891485    -3.696163    4.297875    7.989924    -2.245095    -2.875055    2.561596    -1.366805    6.218434    -12.403864    13.603546    -12.420736    -9.429955    2.311269    4.498844    -7.568561    -34.917473    10.706808    -60.274059    -4.917074    -29.181259    -124.245857    -7.289681    -36.261032    -14.014712    -1.101415    9.017026    -2.539992    44.860779    11.003335    33.468182    -61.796474    -42.217556    -0.514068    7.159062    -41.382378    22.530443    -3.113983    -36.204464    -29.841526    -10.854663    22.872662    -24.752144    -11.338725    1.861129    31.372168    0.000000    0.000000    0.000000    4.288381    8.692865    -20.563530    2.122528    23.704819    -3.152606    -0.272273    -30.726807    -9.357960    0.000000    0.000000    0.000000    
-29.402138    151.356171    -34.787651    -0.246256    3.683557    24.858364    -3.684429    4.301609    8.008414    -2.237367    -2.873381    2.568075    -1.341730    6.180703    -12.372864    13.531932    -12.357373    -9.424417    2.299293    4.484131    -7.566447    -34.923031    10.710945    -60.264286    -4.922878    -29.183372    -124.251068    -7.290900    -36.272652    -14.013196    -1.133866    9.036902    -2.513264    44.835754    11.015099    33.446915    -61.770100    -42.204899    -0.491989    7.170626    -41.357162    22.544809    -3.111283    -36.217655    -29.826601    -10.853100    22.927643    -24.753305    -11.311019    1.842088    31.368298    0.000000    0.000000    0.000000    4.279199    8.696033    -20.557369    2.118482    23.718267    -3.137797    -0.263563    -30.737377    -9.331235    0.000000    0.000000    0.000000    
-29.379379    151.347229    -34.788483    -0.248685    3.675897    24.822117    -3.661336    4.303265    8.027499    -2.245186    -2.860528    2.574775    -1.346867    6.134676    -12.355896    13.516274    -12.275866    -9.418833    2.291952    4.462320    -7.559710    -34.910091    10.734200    -60.262623    -4.910233    -29.221561    -124.247635    -7.295275    -36.287041    -14.020423    -1.149911    9.048705    -2.498135    44.754726    11.130329    33.444553    -61.865364    -42.206642    -0.595441    7.184245    -41.403507    22.551384    -3.108004    -36.227898    -29.838076    -10.872042    22.968393    -24.700403    -11.276541    1.840471    31.359081    0.000000    0.000000    0.000000    4.265490    8.690099    -20.556656    2.093555    23.755394    -3.096669    -0.241786    -30.760063    -9.308583    0.000000    0.000000    0.000000    
-29.358309    151.333817    -34.783333    -0.243043    3.663805    24.789633    -3.652816    4.315099    8.039545    -2.245676    -2.864112    2.578696    -1.346092    6.102662    -12.329469    13.495127    -12.193982    -9.405439    2.283249    4.457354    -7.550296    -34.913631    10.729527    -60.257343    -4.917902    -29.205088    -124.250832    -7.271308    -36.286915    -14.014220    -1.164132    9.071493    -2.477303    44.709362    11.152782    33.444572    -61.865215    -42.225739    -0.602500    7.222139    -41.419441    22.568974    -3.114975    -36.233288    -29.847649    -10.877871    23.024433    -24.712694    -11.243951    1.810478    31.393604    0.000000    0.000000    0.000000    4.249484    8.697913    -20.559464    2.087597    23.783934    -3.104715    -0.229249    -30.786034    -9.270396    0.000000    0.000000    0.000000    
-29.337257    151.317841    -34.778763    -0.233486    3.655617    24.759336    -3.650586    4.328451    8.053662    -2.253365    -2.871190    2.582958    -1.325102    6.065471    -12.317400    13.465452    -12.102867    -9.412047    2.291597    4.456560    -7.531904    -34.918121    10.744336    -60.280018    -4.931487    -29.202124    -124.257980    -7.266229    -36.306946    -14.012061    -1.158625    9.063827    -2.460732    44.667686    11.163975    33.420033    -61.836933    -42.229725    -0.584430    7.259000    -41.408661    22.588717    -3.133210    -36.245689    -29.870148    -10.962592    23.096960    -24.519518    -11.096362    1.834223    31.360399    0.000000    0.000000    0.000000    4.225988    8.700673    -20.524958    2.102931    23.816031    -3.130628    -0.232025    -30.821596    -9.268294    0.000000    0.000000    0.000000    
-29.315573    151.303314    -34.771461    -0.219055    3.646461    24.734152    -3.661654    4.335393    8.065479    -2.236071    -2.869152    2.587165    -1.321271    6.022568    -12.303625    13.437746    -12.002798    -9.415664    2.270458    4.442250    -7.525410    -34.926987    10.749222    -60.276924    -4.939299    -29.176353    -124.259605    -7.281146    -36.293694    -14.015769    -1.171681    9.046375    -2.438154    44.653481    11.126572    33.389275    -61.759327    -42.253956    -0.510415    7.264484    -41.399143    22.582422    -3.159608    -36.252281    -29.906040    -10.976533    23.162806    -24.521391    -11.061231    1.796657    31.413492    0.000000    0.000000    0.000000    4.203394    8.702885    -20.528473    2.086909    23.858055    -3.131342    -0.213610    -30.851307    -9.235408    0.000000    0.000000    0.000000    
-29.292118    151.288406    -34.761166    -0.200036    3.631852    24.707565    -3.665943    4.352104    8.075847    -2.239809    -2.880276    2.590086    -1.317418    6.016043    -12.299514    13.441149    -11.926151    -9.419553    2.270301    4.455179    -7.519795    -34.925903    10.756361    -60.291592    -4.933636    -29.179377    -124.257370    -7.275593    -36.288048    -14.014566    -1.169343    9.040303    -2.410158    44.635220    11.082098    33.361950    -61.693779    -42.275051    -0.456941    7.285861    -41.390831    22.627201    -3.183868    -36.250874    -29.957855    -11.000116    23.218296    -24.520231    -11.024027    1.767994    31.463409    0.000000    0.000000    0.000000    4.179672    8.715946    -20.516188    2.079403    23.893864    -3.118751    -0.214475    -30.882378    -9.242264    0.000000    0.000000    0.000000    
-29.272408    151.273972    -34.746403    -0.179032    3.620244    24.688635    -3.682985    4.356412    8.086488    -2.229162    -2.875349    2.593735    -1.317268    5.994169    -12.296293    13.445391    -11.841466    -9.424558    2.259342    4.459139    -7.516352    -34.921566    10.758828    -60.303150    -4.947786    -29.160830    -124.267601    -7.269018    -36.295410    -14.007905    -1.171502    9.043060    -2.402046    44.610497    11.059448    33.355072    -61.649860    -42.288521    -0.421530    7.313350    -41.383453    22.644775    -3.216299    -36.245457    -30.002632    -11.007030    23.271946    -24.530966    -11.005571    1.724005    31.516476    0.000000    0.000000    0.000000    4.155536    8.732059    -20.497755    2.076600    23.922695    -3.107828    -0.212759    -30.910812    -9.260946    0.000000    0.000000    0.000000    
-29.254425    151.261734    -34.727478    -0.160526    3.602988    24.665012    -3.702039    4.365706    8.104372    -2.209468    -2.879183    2.599802    -1.326070    5.985964    -12.298841    13.458104    -11.763962    -9.432051    2.244274    4.467839    -7.527825    -34.914349    10.771905    -60.303993    -4.938233    -29.161345    -124.273827    -7.261519    -36.282906    -14.004253    -1.167726    9.029235    -2.386940    44.606483    11.001291    33.323277    -61.573524    -42.301750    -0.344007    7.306856    -41.361336    22.676611    -3.231308    -36.233047    -30.037983    -11.022388    23.319382    -24.521294    -10.981620    1.686319    31.537113    0.000000    0.000000    0.000000    4.141363    8.757513    -20.485600    2.059314    23.936211    -3.103864    -0.202253    -30.930456    -9.241056    0.000000    0.000000    0.000000    
